<?xml version="1.0" encoding="utf-8"?>
<!-- Generator: Adobe Illustrator 22.1.0, SVG Export Plug-In . SVG Version: 6.00 Build 0)  -->
<svg version="1.1" id="レイヤー_1" xmlns="http://www.w3.org/2000/svg" xmlns:xlink="http://www.w3.org/1999/xlink" x="0px"
	 y="0px" viewBox="0 0 499.2 199.3" style="enable-background:new 0 0 499.2 199.3;" xml:space="preserve">
<style type="text/css">
	.st0{fill:#3E3A39;}
	.st1{fill:none;stroke:#3E3A39;stroke-miterlimit:10;}
	.st2{fill:#FFF226;}
	.st3{fill:#54C3F1;}
	.st4{fill:#B0D25E;}
	.st5{fill:#EE87B4;}
</style>
<g>
	<path class="st0" d="M319.4,1.8c2.9-0.5,6.9-1,12-1c5.8,0,10.2,1.1,13.2,3.7c2.8,2.4,4.5,6.1,4.5,10.4c0,12.7-10.6,15.6-17.5,15.6
		c-1.3,0-2.4-0.1-3.3-0.2v17.4h-8.9V1.8z M328.3,23.2c0.8,0.2,1.8,0.2,3.1,0.2c5.5,0,8.8-3.1,8.8-8.1c0-4.9-3.1-7.5-8.1-7.5
		c-1.8,0-3.1,0.2-3.9,0.4V23.2z"/>
	<path class="st0" d="M390.4,39.6c0,3,0.1,5.9,0.5,8h-8l-0.5-3.5h-0.2c-1.9,2.7-5.2,4.2-8.9,4.2c-6.2,0-10.1-4.6-10.1-10.1
		c0-8.6,7.7-12.7,18.3-12.7c0-3.3-1.1-5.8-6-5.8c-3.1,0-6.1,1-8.3,2.3l-1.7-5.8c2.2-1.3,6.4-2.8,11.6-2.8c10.4,0,13.3,6.6,13.3,14
		V39.6z M381.8,31.2c-4.8,0-9.8,1.1-9.8,6c0,3.2,2,4.6,4.2,4.6c2.1,0,5.6-1.5,5.6-5.8V31.2z"/>
	<path class="st0" d="M454.6,47.5h-8.5l-0.8-18c-0.2-6.1-0.5-12.4-0.5-18.3h-0.2c-1.3,5.5-3,11.7-4.6,16.9l-5.7,18.7h-6.8l-5.1-18.4
		c-1.5-5.2-3-11.5-4-17.2h-0.2c-0.1,5.8-0.4,12.7-0.7,18.4l-0.9,17.8h-8.1l3.1-46.3h11l5,17.4c1.5,5.6,2.8,11,3.9,16.3h0.2
		c1.1-5.2,2.5-10.8,4-16.3L441,1.2h11L454.6,47.5z"/>
	<path class="st0" d="M495.6,9.9c-1.6-0.8-4.5-2-8.3-2c-4.7,0-6.8,2.5-6.8,5.1c0,3.3,2.3,4.8,8,7.4c7.4,3.3,10.7,7.6,10.7,13.7
		c0,8.1-6.1,14-16.9,14c-4.6,0-9.2-1.3-11.4-2.6l1.7-7.5c2.4,1.4,6.3,2.6,10,2.6c4.9,0,7.5-2.4,7.5-5.8c0-3.3-2.2-5.3-7.4-7.5
		c-7-3-11.3-7.4-11.3-13.4c0-7.6,6-13.4,16-13.4c4.4,0,7.8,1,9.9,2.1L495.6,9.9z"/>
</g>
<g>
	<path class="st0" d="M325.7,71c1,0,1.9,0.2,2.7,0.5c0.7,0.3,1.3,0.7,1.8,1.2c0.5,0.5,0.8,1.1,1,1.7c0.2,0.6,0.3,1.3,0.3,2
		c0,0.7-0.1,1.3-0.3,2c-0.2,0.6-0.5,1.2-1,1.7c-0.5,0.5-1.1,0.9-1.8,1.2s-1.6,0.5-2.7,0.5h-3.9v6h-3.7V71H325.7z M324.7,78.8
		c0.4,0,0.8,0,1.2-0.1c0.4-0.1,0.7-0.2,1-0.4c0.3-0.2,0.5-0.4,0.7-0.8s0.3-0.8,0.3-1.3c0-0.5-0.1-1-0.3-1.3s-0.4-0.6-0.7-0.8
		c-0.3-0.2-0.6-0.3-1-0.4c-0.4-0.1-0.8-0.1-1.2-0.1h-2.9v5H324.7z"/>
	<path class="st0" d="M341.4,84.8c0.5,0.5,1.2,0.7,2.2,0.7c0.7,0,1.2-0.2,1.7-0.5c0.5-0.3,0.8-0.7,0.9-1.1h2.9
		c-0.5,1.5-1.2,2.5-2.2,3.1c-1,0.6-2.1,0.9-3.5,0.9c-1,0-1.8-0.2-2.6-0.5s-1.4-0.7-1.9-1.3s-0.9-1.2-1.2-2c-0.3-0.8-0.4-1.6-0.4-2.6
		c0-0.9,0.1-1.7,0.4-2.5c0.3-0.8,0.7-1.5,1.3-2c0.5-0.6,1.2-1,2-1.3s1.6-0.5,2.5-0.5c1,0,1.9,0.2,2.7,0.6s1.4,0.9,1.9,1.6
		c0.5,0.7,0.8,1.4,1.1,2.3c0.2,0.9,0.3,1.8,0.2,2.7h-8.7C340.6,83.5,340.9,84.3,341.4,84.8z M345.2,78.4c-0.4-0.4-1-0.7-1.8-0.7
		c-0.5,0-1,0.1-1.3,0.3c-0.4,0.2-0.6,0.4-0.8,0.7c-0.2,0.3-0.4,0.5-0.4,0.8c-0.1,0.3-0.1,0.6-0.2,0.8h5.4
		C345.9,79.5,345.6,78.9,345.2,78.4z"/>
	<path class="st0" d="M359.2,75.6v2.2h0c0.2-0.4,0.4-0.7,0.6-1c0.3-0.3,0.6-0.6,0.9-0.8c0.3-0.2,0.7-0.4,1.1-0.5
		c0.4-0.1,0.8-0.2,1.2-0.2c0.2,0,0.5,0,0.7,0.1v3.1c-0.2,0-0.3-0.1-0.6-0.1s-0.4,0-0.6,0c-0.6,0-1.1,0.1-1.5,0.3
		c-0.4,0.2-0.8,0.5-1,0.8s-0.4,0.8-0.6,1.2s-0.2,1-0.2,1.5v5.5h-3.3V75.6H359.2z"/>
	<path class="st0" d="M373,84.7c0.1,0.3,0.3,0.5,0.6,0.6s0.5,0.3,0.8,0.4c0.3,0.1,0.6,0.1,0.9,0.1c0.2,0,0.5,0,0.7-0.1
		c0.3-0.1,0.5-0.1,0.7-0.3s0.4-0.3,0.5-0.5c0.1-0.2,0.2-0.4,0.2-0.7c0-0.5-0.3-0.9-1-1.1c-0.7-0.2-1.6-0.5-2.8-0.8
		c-0.5-0.1-1-0.2-1.4-0.4c-0.5-0.1-0.9-0.3-1.2-0.6c-0.4-0.2-0.6-0.5-0.9-0.9c-0.2-0.4-0.3-0.8-0.3-1.3c0-0.8,0.2-1.4,0.5-1.9
		c0.3-0.5,0.7-0.9,1.2-1.2c0.5-0.3,1.1-0.5,1.7-0.6s1.3-0.2,1.9-0.2s1.3,0.1,1.9,0.2c0.6,0.1,1.2,0.3,1.7,0.6
		c0.5,0.3,0.9,0.7,1.2,1.2s0.5,1.1,0.6,1.9h-3.2c0-0.6-0.3-1.1-0.7-1.3c-0.4-0.2-1-0.3-1.5-0.3c-0.2,0-0.4,0-0.6,0s-0.4,0.1-0.6,0.2
		c-0.2,0.1-0.3,0.2-0.5,0.3c-0.1,0.1-0.2,0.3-0.2,0.6c0,0.3,0.1,0.5,0.3,0.7s0.5,0.3,0.9,0.5s0.8,0.2,1.2,0.3s0.9,0.2,1.4,0.3
		c0.5,0.1,1,0.2,1.4,0.4c0.5,0.2,0.9,0.4,1.2,0.6s0.6,0.6,0.9,1c0.2,0.4,0.3,0.9,0.3,1.4c0,0.8-0.2,1.5-0.5,2s-0.7,1-1.3,1.3
		s-1.1,0.6-1.8,0.7s-1.3,0.2-2,0.2c-0.7,0-1.4-0.1-2.1-0.2s-1.3-0.4-1.8-0.7s-1-0.8-1.3-1.3s-0.5-1.2-0.6-2h3.2
		C372.8,84.1,372.9,84.4,373,84.7z"/>
	<path class="st0" d="M387.5,79c0.3-0.8,0.7-1.5,1.3-2c0.5-0.6,1.2-1,2-1.3s1.6-0.5,2.6-0.5s1.8,0.2,2.6,0.5s1.4,0.7,2,1.3
		c0.5,0.6,1,1.2,1.3,2c0.3,0.8,0.4,1.7,0.4,2.6c0,1-0.1,1.8-0.4,2.6c-0.3,0.8-0.7,1.4-1.3,2c-0.5,0.6-1.2,1-2,1.3s-1.6,0.4-2.6,0.4
		s-1.8-0.1-2.6-0.4s-1.4-0.7-2-1.3c-0.5-0.6-1-1.2-1.3-2c-0.3-0.8-0.4-1.7-0.4-2.6C387.1,80.7,387.2,79.8,387.5,79z M390.6,83.1
		c0.1,0.5,0.3,0.9,0.5,1.2c0.2,0.4,0.5,0.7,0.9,0.9c0.4,0.2,0.8,0.3,1.4,0.3s1-0.1,1.4-0.3c0.4-0.2,0.7-0.5,0.9-0.9
		c0.2-0.4,0.4-0.8,0.5-1.2c0.1-0.5,0.1-0.9,0.1-1.4c0-0.5,0-1-0.1-1.4s-0.3-0.9-0.5-1.2c-0.2-0.4-0.5-0.7-0.9-0.9
		c-0.4-0.2-0.9-0.3-1.4-0.3s-1,0.1-1.4,0.3c-0.4,0.2-0.7,0.5-0.9,0.9c-0.2,0.4-0.4,0.8-0.5,1.2s-0.1,0.9-0.1,1.4
		C390.4,82.1,390.5,82.6,390.6,83.1z"/>
	<path class="st0" d="M409.6,75.6v1.7h0.1c0.4-0.7,1-1.2,1.6-1.5c0.7-0.3,1.4-0.5,2.1-0.5c0.9,0,1.6,0.1,2.2,0.4
		c0.6,0.2,1,0.6,1.3,1c0.3,0.4,0.6,1,0.7,1.6c0.1,0.6,0.2,1.3,0.2,2.1v7.5h-3.3v-6.8c0-1-0.2-1.7-0.5-2.2s-0.9-0.7-1.7-0.7
		c-0.9,0-1.6,0.3-2,0.8s-0.6,1.4-0.6,2.7v6.4h-3.3V75.6H409.6z"/>
	<path class="st0" d="M425,79.3c0-0.8,0.2-1.4,0.6-1.9s0.8-0.9,1.3-1.2c0.5-0.3,1.1-0.5,1.8-0.7c0.7-0.1,1.3-0.2,2-0.2
		c0.6,0,1.2,0,1.9,0.1c0.6,0.1,1.2,0.3,1.7,0.5c0.5,0.3,0.9,0.6,1.3,1s0.5,1,0.5,1.8V85c0,0.5,0,1.1,0.1,1.6
		c0.1,0.5,0.2,0.9,0.3,1.1h-3.4c-0.1-0.2-0.1-0.4-0.2-0.6c0-0.2-0.1-0.4-0.1-0.6c-0.5,0.5-1.2,0.9-1.9,1.1s-1.5,0.3-2.2,0.3
		c-0.6,0-1.1-0.1-1.6-0.2s-0.9-0.4-1.3-0.7c-0.4-0.3-0.7-0.7-0.9-1.1c-0.2-0.5-0.3-1-0.3-1.6c0-0.7,0.1-1.3,0.4-1.7s0.6-0.8,0.9-1.1
		c0.4-0.3,0.8-0.5,1.3-0.6c0.5-0.1,1-0.2,1.5-0.3c0.5-0.1,1-0.1,1.5-0.2s0.9-0.1,1.3-0.2s0.7-0.2,0.9-0.4c0.2-0.2,0.3-0.4,0.3-0.8
		c0-0.4-0.1-0.6-0.2-0.9s-0.3-0.4-0.5-0.5s-0.4-0.2-0.7-0.2c-0.3,0-0.5-0.1-0.8-0.1c-0.7,0-1.2,0.1-1.5,0.4s-0.6,0.8-0.7,1.4H425z
		 M432.7,81.8c-0.1,0.1-0.3,0.2-0.5,0.3s-0.4,0.1-0.7,0.2s-0.5,0.1-0.8,0.1c-0.3,0-0.5,0.1-0.8,0.1c-0.2,0-0.5,0.1-0.7,0.2
		c-0.2,0.1-0.5,0.2-0.6,0.3c-0.2,0.1-0.3,0.3-0.4,0.5c-0.1,0.2-0.2,0.5-0.2,0.8c0,0.3,0.1,0.5,0.2,0.8c0.1,0.2,0.3,0.4,0.4,0.5
		s0.4,0.2,0.7,0.2s0.5,0.1,0.8,0.1c0.7,0,1.2-0.1,1.5-0.3c0.4-0.2,0.6-0.5,0.8-0.8s0.3-0.6,0.3-0.9c0-0.3,0.1-0.6,0.1-0.8V81.8z"/>
	<path class="st0" d="M446.7,71v16.7h-3.3V71H446.7z"/>
	<path class="st0" d="M454.2,73.7V71h3.3v2.7H454.2z M457.5,75.6v12.1h-3.3V75.6H457.5z"/>
	<path class="st0" d="M471.5,75.6v2.2h-2.4v6c0,0.6,0.1,0.9,0.3,1.1s0.6,0.3,1.1,0.3c0.2,0,0.4,0,0.5,0c0.2,0,0.3,0,0.5-0.1v2.6
		c-0.3,0-0.6,0.1-0.9,0.1c-0.3,0-0.7,0-1,0c-0.5,0-1,0-1.5-0.1s-0.9-0.2-1.2-0.4c-0.4-0.2-0.6-0.5-0.8-0.9s-0.3-0.9-0.3-1.5v-7.1h-2
		v-2.2h2v-3.6h3.3v3.6H471.5z"/>
	<path class="st0" d="M483,91.3c-0.6,0.4-1.5,0.6-2.7,0.6c-0.3,0-0.7,0-1,0s-0.7-0.1-1-0.1v-2.7c0.3,0,0.6,0.1,1,0.1
		c0.3,0,0.7,0,1,0c0.4,0,0.8-0.2,1-0.5c0.2-0.3,0.3-0.6,0.3-1c0-0.3,0-0.5-0.1-0.8l-4.2-11.4h3.5l2.7,8.3h0l2.6-8.3h3.4l-5.1,13.6
		C484.1,90.2,483.6,90.9,483,91.3z"/>
	<path class="st0" d="M317.7,113.6c0-0.8,0.2-1.4,0.6-1.9s0.8-0.9,1.3-1.2s1.1-0.5,1.8-0.7s1.3-0.2,2-0.2c0.6,0,1.2,0,1.9,0.1
		s1.2,0.3,1.7,0.5s0.9,0.6,1.3,1s0.5,1,0.5,1.8v6.3c0,0.5,0,1.1,0.1,1.6s0.2,0.9,0.3,1.1h-3.4c-0.1-0.2-0.1-0.4-0.2-0.6
		s-0.1-0.4-0.1-0.6c-0.5,0.5-1.2,0.9-1.9,1.1s-1.5,0.3-2.2,0.3c-0.6,0-1.1-0.1-1.6-0.2s-0.9-0.4-1.3-0.7s-0.7-0.7-0.9-1.1
		s-0.3-1-0.3-1.6c0-0.7,0.1-1.3,0.4-1.7s0.6-0.8,0.9-1.1s0.8-0.5,1.3-0.6s1-0.2,1.5-0.3s1-0.1,1.5-0.2s0.9-0.1,1.3-0.2
		s0.7-0.2,0.9-0.4s0.3-0.4,0.3-0.8c0-0.4-0.1-0.6-0.2-0.9s-0.3-0.4-0.5-0.5s-0.4-0.2-0.7-0.2s-0.5-0.1-0.8-0.1
		c-0.7,0-1.2,0.1-1.5,0.4s-0.6,0.8-0.7,1.4H317.7z M325.4,116.1c-0.1,0.1-0.3,0.2-0.5,0.3s-0.4,0.1-0.7,0.2s-0.5,0.1-0.8,0.1
		s-0.5,0.1-0.8,0.1c-0.2,0-0.5,0.1-0.7,0.2s-0.5,0.2-0.6,0.3s-0.3,0.3-0.4,0.5s-0.2,0.5-0.2,0.8c0,0.3,0.1,0.5,0.2,0.8
		s0.3,0.4,0.4,0.5s0.4,0.2,0.7,0.2s0.5,0.1,0.8,0.1c0.7,0,1.2-0.1,1.5-0.3s0.6-0.5,0.8-0.8s0.3-0.6,0.3-0.9s0.1-0.6,0.1-0.8V116.1z"
		/>
	<path class="st0" d="M339.2,109.9v1.7h0.1c0.4-0.7,1-1.2,1.6-1.5s1.4-0.5,2.1-0.5c0.9,0,1.6,0.1,2.2,0.4s1,0.6,1.3,1s0.6,1,0.7,1.6
		s0.2,1.3,0.2,2.1v7.5h-3.3v-6.8c0-1-0.2-1.7-0.5-2.2s-0.9-0.7-1.7-0.7c-0.9,0-1.6,0.3-2,0.8s-0.6,1.4-0.6,2.7v6.4h-3.3v-12.1H339.2
		z"/>
	<path class="st0" d="M363.4,120.5c-0.4,0.7-0.9,1.1-1.5,1.4s-1.3,0.4-2.1,0.4c-0.9,0-1.7-0.2-2.4-0.5s-1.3-0.8-1.7-1.4
		s-0.8-1.3-1-2.1s-0.3-1.6-0.3-2.4c0-0.8,0.1-1.6,0.3-2.4s0.6-1.4,1-2s1-1,1.7-1.4s1.5-0.5,2.3-0.5c0.7,0,1.4,0.2,2.1,0.5
		s1.2,0.8,1.5,1.3h0v-6.1h3.3V122h-3.2L363.4,120.5L363.4,120.5z M363.2,114.5c-0.1-0.5-0.3-0.9-0.5-1.2s-0.5-0.6-0.9-0.9
		s-0.8-0.3-1.4-0.3s-1,0.1-1.4,0.3s-0.7,0.5-0.9,0.9s-0.4,0.8-0.5,1.2s-0.2,0.9-0.2,1.4c0,0.5,0.1,0.9,0.2,1.4s0.3,0.9,0.5,1.3
		s0.5,0.7,0.9,0.9s0.8,0.3,1.3,0.3c0.5,0,1-0.1,1.4-0.3s0.7-0.5,0.9-0.9s0.4-0.8,0.5-1.3s0.1-1,0.1-1.5S363.3,114.9,363.2,114.5z"/>
	<path class="st0" d="M323.4,139.6l3.9,11.5h0l3.7-11.5h5.2v16.7h-3.4v-11.9h0l-4.1,11.9h-2.8l-4.1-11.7h0v11.7h-3.4v-16.7H323.4z"
		/>
	<path class="st0" d="M343.7,147.9c0-0.8,0.2-1.4,0.6-1.9s0.8-0.9,1.3-1.2s1.1-0.5,1.8-0.7s1.3-0.2,2-0.2c0.6,0,1.2,0,1.9,0.1
		s1.2,0.3,1.7,0.5s0.9,0.6,1.3,1s0.5,1,0.5,1.8v6.3c0,0.5,0,1.1,0.1,1.6s0.2,0.9,0.3,1.1h-3.4c-0.1-0.2-0.1-0.4-0.2-0.6
		s-0.1-0.4-0.1-0.6c-0.5,0.5-1.2,0.9-1.9,1.1s-1.5,0.3-2.2,0.3c-0.6,0-1.1-0.1-1.6-0.2s-0.9-0.4-1.3-0.7s-0.7-0.7-0.9-1.1
		s-0.3-1-0.3-1.6c0-0.7,0.1-1.3,0.4-1.7s0.6-0.8,0.9-1.1s0.8-0.5,1.3-0.6s1-0.2,1.5-0.3s1-0.1,1.5-0.2s0.9-0.1,1.3-0.2
		s0.7-0.2,0.9-0.4s0.3-0.4,0.3-0.8c0-0.4-0.1-0.6-0.2-0.9s-0.3-0.4-0.5-0.5s-0.4-0.2-0.7-0.2s-0.5-0.1-0.8-0.1
		c-0.7,0-1.2,0.1-1.5,0.4s-0.6,0.8-0.7,1.4H343.7z M351.4,150.4c-0.1,0.1-0.3,0.2-0.5,0.3s-0.4,0.1-0.7,0.2s-0.5,0.1-0.8,0.1
		s-0.5,0.1-0.8,0.1c-0.2,0-0.5,0.1-0.7,0.2s-0.5,0.2-0.6,0.3s-0.3,0.3-0.4,0.5s-0.2,0.5-0.2,0.8c0,0.3,0.1,0.5,0.2,0.8
		s0.3,0.4,0.4,0.5s0.4,0.2,0.7,0.2s0.5,0.1,0.8,0.1c0.7,0,1.2-0.1,1.5-0.3s0.6-0.5,0.8-0.8s0.3-0.6,0.3-0.9s0.1-0.6,0.1-0.8V150.4z"
		/>
	<path class="st0" d="M368.7,144.2v2.2h-2.4v6c0,0.6,0.1,0.9,0.3,1.1s0.6,0.3,1.1,0.3c0.2,0,0.4,0,0.5,0s0.3,0,0.5-0.1v2.6
		c-0.3,0-0.6,0.1-0.9,0.1s-0.7,0-1,0c-0.5,0-1,0-1.5-0.1s-0.9-0.2-1.2-0.4s-0.6-0.5-0.8-0.9s-0.3-0.9-0.3-1.5v-7.1h-2v-2.2h2v-3.6
		h3.3v3.6H368.7z"/>
	<path class="st0" d="M380.6,146.4c-0.5,0-1,0.1-1.3,0.4s-0.7,0.6-0.9,0.9s-0.4,0.8-0.5,1.3s-0.1,0.9-0.1,1.4c0,0.4,0,0.9,0.1,1.3
		s0.2,0.9,0.5,1.2s0.5,0.7,0.9,0.9s0.8,0.4,1.3,0.4c0.8,0,1.4-0.2,1.8-0.7s0.7-1,0.8-1.8h3.2c-0.2,1.6-0.8,2.8-1.9,3.7
		s-2.4,1.3-4,1.3c-0.9,0-1.7-0.2-2.5-0.5s-1.4-0.7-1.9-1.3s-0.9-1.2-1.2-2s-0.4-1.6-0.4-2.5c0-0.9,0.1-1.8,0.4-2.6s0.7-1.5,1.2-2.1
		s1.2-1,1.9-1.4s1.6-0.5,2.6-0.5c0.7,0,1.4,0.1,2.1,0.3s1.3,0.5,1.8,0.9s0.9,0.9,1.3,1.4s0.5,1.2,0.6,2h-3.3
		C382.9,147.1,382.1,146.4,380.6,146.4z"/>
	<path class="st0" d="M396.4,139.6v6.3h0.1c0.4-0.7,1-1.2,1.6-1.5s1.3-0.5,1.9-0.5c0.9,0,1.6,0.1,2.2,0.4s1,0.6,1.3,1s0.6,1,0.7,1.6
		s0.2,1.3,0.2,2.1v7.5h-3.3v-6.8c0-1-0.2-1.7-0.5-2.2s-0.9-0.7-1.7-0.7c-0.9,0-1.6,0.3-2,0.8s-0.6,1.4-0.6,2.7v6.4h-3.3v-16.7H396.4
		z"/>
	<path class="st0" d="M411.9,142.3v-2.7h3.3v2.7H411.9z M415.2,144.2v12.1h-3.3v-12.1H415.2z"/>
	<path class="st0" d="M425.7,144.2v1.7h0.1c0.4-0.7,1-1.2,1.6-1.5s1.4-0.5,2.1-0.5c0.9,0,1.6,0.1,2.2,0.4s1,0.6,1.3,1s0.6,1,0.7,1.6
		s0.2,1.3,0.2,2.1v7.5h-3.3v-6.8c0-1-0.2-1.7-0.5-2.2s-0.9-0.7-1.7-0.7c-0.9,0-1.6,0.3-2,0.8s-0.6,1.4-0.6,2.7v6.4h-3.3v-12.1H425.7
		z"/>
	<path class="st0" d="M452.6,157.2c-0.1,0.6-0.4,1.2-0.9,1.7s-1.1,1-1.9,1.4s-1.9,0.6-3.3,0.6c-0.6,0-1.2-0.1-1.8-0.2
		s-1.2-0.4-1.7-0.7s-0.9-0.7-1.3-1.2s-0.5-1.1-0.6-1.8h3.3c0.2,0.6,0.5,1.1,0.9,1.3s1,0.4,1.6,0.4c0.9,0,1.6-0.3,2.1-0.8
		s0.6-1.3,0.6-2.1v-1.6h0c-0.4,0.6-0.9,1.1-1.5,1.4s-1.4,0.5-2.1,0.5c-0.9,0-1.7-0.2-2.3-0.5s-1.2-0.8-1.6-1.3s-0.7-1.2-0.9-1.9
		s-0.3-1.5-0.3-2.4c0-0.8,0.1-1.5,0.3-2.3s0.6-1.4,1-1.9s1-1,1.6-1.3s1.4-0.5,2.2-0.5c0.8,0,1.5,0.1,2.1,0.4s1.1,0.8,1.5,1.5h0v-1.6
		h3.2v11.3C452.8,156,452.7,156.6,452.6,157.2z M448,153.2c0.4-0.2,0.7-0.4,0.9-0.8s0.4-0.7,0.5-1.1s0.2-0.8,0.2-1.3
		c0-0.5,0-1-0.1-1.4s-0.2-0.8-0.5-1.2s-0.5-0.6-0.9-0.8s-0.8-0.3-1.4-0.3c-0.5,0-0.9,0.1-1.2,0.3s-0.6,0.4-0.8,0.8s-0.4,0.7-0.5,1.1
		s-0.2,0.8-0.2,1.3c0,0.4,0,0.9,0.1,1.3s0.2,0.8,0.4,1.2s0.5,0.6,0.8,0.8s0.8,0.3,1.3,0.3C447.3,153.5,447.7,153.4,448,153.2z"/>
	<path class="st0" d="M321,186.5c0.2,0.4,0.5,0.7,0.8,0.9s0.7,0.4,1.2,0.5s0.9,0.2,1.4,0.2c0.3,0,0.7,0,1.1-0.1s0.7-0.2,1.1-0.3
		s0.6-0.4,0.8-0.6s0.3-0.6,0.3-1c0-0.5-0.1-0.8-0.4-1.1s-0.7-0.5-1.1-0.7s-1-0.4-1.6-0.5s-1.2-0.3-1.8-0.5c-0.6-0.2-1.2-0.3-1.8-0.6
		s-1.1-0.5-1.6-0.9s-0.8-0.8-1.1-1.3s-0.4-1.2-0.4-2c0-0.9,0.2-1.6,0.6-2.2s0.8-1.2,1.4-1.6s1.3-0.7,2-0.9c0.8-0.2,1.5-0.3,2.2-0.3
		c0.9,0,1.7,0.1,2.5,0.3c0.8,0.2,1.5,0.5,2.1,0.9c0.6,0.4,1.1,1,1.5,1.7s0.6,1.5,0.6,2.5h-3.6c0-0.5-0.1-0.9-0.3-1.2
		s-0.4-0.6-0.7-0.8s-0.6-0.3-1-0.4s-0.8-0.1-1.3-0.1c-0.3,0-0.6,0-0.9,0.1s-0.6,0.2-0.8,0.3s-0.4,0.4-0.6,0.6s-0.2,0.5-0.2,0.9
		c0,0.3,0.1,0.6,0.2,0.8s0.4,0.4,0.7,0.6s0.9,0.3,1.5,0.5s1.5,0.4,2.5,0.7c0.3,0.1,0.7,0.2,1.3,0.3s1.1,0.4,1.7,0.8s1,0.8,1.4,1.4
		s0.6,1.4,0.6,2.3c0,0.8-0.1,1.5-0.4,2.1s-0.7,1.2-1.3,1.7s-1.3,0.8-2.2,1.1s-1.9,0.4-3,0.4c-0.9,0-1.8-0.1-2.7-0.3
		s-1.6-0.6-2.3-1.1s-1.2-1.1-1.6-1.9s-0.6-1.6-0.6-2.7h3.6C320.7,185.7,320.8,186.1,321,186.5z"/>
	<path class="st0" d="M343.6,180.7c-0.5,0-1,0.1-1.3,0.4s-0.7,0.6-0.9,0.9s-0.4,0.8-0.5,1.3s-0.1,0.9-0.1,1.4c0,0.4,0,0.9,0.1,1.3
		s0.2,0.9,0.5,1.2s0.5,0.7,0.9,0.9s0.8,0.4,1.3,0.4c0.8,0,1.4-0.2,1.8-0.7s0.7-1,0.8-1.8h3.2c-0.2,1.6-0.8,2.8-1.9,3.7
		s-2.4,1.3-4,1.3c-0.9,0-1.7-0.2-2.5-0.5s-1.4-0.7-1.9-1.3s-0.9-1.2-1.2-2s-0.4-1.6-0.4-2.5c0-0.9,0.1-1.8,0.4-2.6s0.7-1.5,1.2-2.1
		s1.2-1,1.9-1.4s1.6-0.5,2.6-0.5c0.7,0,1.4,0.1,2.1,0.3s1.3,0.5,1.8,0.9s0.9,0.9,1.3,1.4s0.5,1.2,0.6,2h-3.3
		C345.9,181.4,345,180.7,343.6,180.7z"/>
	<path class="st0" d="M355.9,182.3c0-0.8,0.2-1.4,0.6-1.9s0.8-0.9,1.3-1.2s1.1-0.5,1.8-0.7s1.3-0.2,2-0.2c0.6,0,1.2,0,1.9,0.1
		s1.2,0.3,1.7,0.5s0.9,0.6,1.3,1s0.5,1,0.5,1.8v6.3c0,0.5,0,1.1,0.1,1.6s0.2,0.9,0.3,1.1H364c-0.1-0.2-0.1-0.4-0.2-0.6
		s-0.1-0.4-0.1-0.6c-0.5,0.5-1.2,0.9-1.9,1.1s-1.5,0.3-2.2,0.3c-0.6,0-1.1-0.1-1.6-0.2s-0.9-0.4-1.3-0.7s-0.7-0.7-0.9-1.1
		s-0.3-1-0.3-1.6c0-0.7,0.1-1.3,0.4-1.7s0.6-0.8,0.9-1.1s0.8-0.5,1.3-0.6s1-0.2,1.5-0.3s1-0.1,1.5-0.2s0.9-0.1,1.3-0.2
		s0.7-0.2,0.9-0.4s0.3-0.4,0.3-0.8c0-0.4-0.1-0.6-0.2-0.9s-0.3-0.4-0.5-0.5s-0.4-0.2-0.7-0.2s-0.5-0.1-0.8-0.1
		c-0.7,0-1.2,0.1-1.5,0.4s-0.6,0.8-0.7,1.4H355.9z M363.6,184.7c-0.1,0.1-0.3,0.2-0.5,0.3s-0.4,0.1-0.7,0.2s-0.5,0.1-0.8,0.1
		s-0.5,0.1-0.8,0.1c-0.2,0-0.5,0.1-0.7,0.2s-0.5,0.2-0.6,0.3s-0.3,0.3-0.4,0.5s-0.2,0.5-0.2,0.8c0,0.3,0.1,0.5,0.2,0.8
		s0.3,0.4,0.4,0.5s0.4,0.2,0.7,0.2s0.5,0.1,0.8,0.1c0.7,0,1.2-0.1,1.5-0.3s0.6-0.5,0.8-0.8s0.3-0.6,0.3-0.9s0.1-0.6,0.1-0.8V184.7z"
		/>
	<path class="st0" d="M377.7,173.9v16.7h-3.3v-16.7H377.7z"/>
	<path class="st0" d="M388.6,187.7c0.5,0.5,1.2,0.7,2.2,0.7c0.7,0,1.2-0.2,1.7-0.5s0.8-0.7,0.9-1.1h2.9c-0.5,1.5-1.2,2.5-2.2,3.1
		s-2.1,0.9-3.5,0.9c-1,0-1.8-0.2-2.6-0.5s-1.4-0.7-1.9-1.3s-0.9-1.2-1.2-2s-0.4-1.6-0.4-2.6c0-0.9,0.1-1.8,0.4-2.5s0.7-1.5,1.3-2
		s1.2-1,2-1.3s1.6-0.5,2.5-0.5c1,0,1.9,0.2,2.7,0.6s1.4,0.9,1.9,1.6s0.8,1.4,1.1,2.3s0.3,1.8,0.2,2.7h-8.7
		C387.9,186.5,388.1,187.3,388.6,187.7z M392.4,181.4c-0.4-0.4-1-0.7-1.8-0.7c-0.5,0-1,0.1-1.3,0.3s-0.6,0.4-0.8,0.7
		s-0.4,0.5-0.4,0.8s-0.1,0.6-0.2,0.8h5.4C393.1,182.5,392.8,181.8,392.4,181.4z"/>
</g>
<line class="st1" x1="252.5" y1="0" x2="252.5" y2="199.3"/>
<path class="st2" d="M199.3,99.7c0,55-44.6,99.7-99.7,99.7c-55,0-99.7-44.6-99.7-99.7C0,44.6,44.6,0,99.7,0
	C154.7,0,199.3,44.6,199.3,99.7"/>
<path class="st3" d="M180.3,99.7c0,26.8-21.8,48.6-48.6,48.6c-26.8,0-48.6-21.8-48.6-48.6c0-26.8,21.8-48.6,48.6-48.6
	C158.5,51.1,180.3,72.8,180.3,99.7"/>
<path class="st4" d="M118.5,99.7c0,27.3-22.1,49.4-49.4,49.4c-27.3,0-49.4-22.1-49.4-49.4c0-27.3,22.1-49.4,49.4-49.4
	C96.4,50.2,118.5,72.4,118.5,99.7"/>
<path class="st5" d="M63.3,99.7c0-15.6,12.6-28.2,28.2-28.2c15.6,0,50.9,12.6,50.9,28.2c0,15.6-35.3,28.2-50.9,28.2
	C76,127.8,63.3,115.2,63.3,99.7"/>
</svg>
