<?xml version="1.0" encoding="utf-8"?>
<!-- Generator: Adobe Illustrator 22.1.0, SVG Export Plug-In . SVG Version: 6.00 Build 0)  -->
<svg version="1.1" id="レイヤー_1" xmlns="http://www.w3.org/2000/svg" xmlns:xlink="http://www.w3.org/1999/xlink" x="0px"
	 y="0px" viewBox="0 0 226.5 226.5" style="enable-background:new 0 0 226.5 226.5;" xml:space="preserve">
<style type="text/css">
	.st0{fill:#FFF226;}
	.st1{fill:#54C3F1;}
	.st2{fill:#B0D25E;}
	.st3{fill:#EE87B4;}
</style>
<path class="st0" d="M226.5,113.2c0,62.5-50.7,113.2-113.2,113.2C50.7,226.5,0,175.8,0,113.2C0,50.7,50.7,0,113.2,0
	C175.8,0,226.5,50.7,226.5,113.2"/>
<path class="st1" d="M204.8,113.2c0,30.5-24.7,55.2-55.2,55.2c-30.5,0-55.2-24.7-55.2-55.2c0-30.5,24.7-55.2,55.2-55.2
	C180.1,58,204.8,82.7,204.8,113.2"/>
<path class="st2" d="M134.7,113.2c0,31-25.1,56.1-56.1,56.1c-31,0-56.1-25.1-56.1-56.1c0-31,25.1-56.1,56.1-56.1
	C109.5,57.1,134.7,82.2,134.7,113.2"/>
<path class="st3" d="M72,113.2c0-17.7,14.3-32,32-32c17.7,0,57.8,14.3,57.8,32c0,17.7-40.1,32-57.8,32C86.3,145.3,72,130.9,72,113.2
	"/>
</svg>
